<?xml version="1.0" encoding="UTF-8" standalone="no"?>
<svg
   xmlns:sketch="http://www.bohemiancoding.com/sketch/ns"
   xmlns:dc="http://purl.org/dc/elements/1.1/"
   xmlns:cc="http://creativecommons.org/ns#"
   xmlns:rdf="http://www.w3.org/1999/02/22-rdf-syntax-ns#"
   xmlns:svg="http://www.w3.org/2000/svg"
   xmlns="http://www.w3.org/2000/svg"
   xmlns:sodipodi="http://sodipodi.sourceforge.net/DTD/sodipodi-0.dtd"
   xmlns:inkscape="http://www.inkscape.org/namespaces/inkscape"
   width="82.788765"
   height="82.551895"
   viewBox="0 0 82.788765 82.551895"
   version="1.1"
   id="svg12"
   sodipodi:docname="puzzle_classic_rgb.svg"
   inkscape:version="0.92.4 5da689c313, 2019-01-14">
  <metadata
     id="metadata16">
    <rdf:RDF>
      <cc:Work
         rdf:about="">
        <dc:format>image/svg+xml</dc:format>
        <dc:type
           rdf:resource="http://purl.org/dc/dcmitype/StillImage" />
        <dc:title>logo_classic</dc:title>
      </cc:Work>
    </rdf:RDF>
  </metadata>
  <sodipodi:namedview
     pagecolor="#ffffff"
     bordercolor="#666666"
     borderopacity="1"
     objecttolerance="10"
     gridtolerance="10"
     guidetolerance="10"
     inkscape:pageopacity="0"
     inkscape:pageshadow="2"
     inkscape:window-width="3000"
     inkscape:window-height="1881"
     id="namedview14"
     showgrid="false"
     inkscape:pagecheckerboard="true"
     fit-margin-top="0"
     fit-margin-left="0"
     fit-margin-right="0"
     fit-margin-bottom="0"
     inkscape:zoom="7.0040824"
     inkscape:cx="-36.249041"
     inkscape:cy="2.1567408"
     inkscape:window-x="0"
     inkscape:window-y="0"
     inkscape:window-maximized="1"
     inkscape:current-layer="svg12" />
  <!-- Generator: Sketch 3.0.3 (7891) - http://www.bohemiancoding.com/sketch -->
  <title
     id="title2">logo_classic</title>
  <desc
     id="desc4">Created with Sketch.</desc>
  <defs
     id="defs6" />
  <path
     d="m 13.178437,69.407968 c -15.585143,-15.537544 -15.585143,-40.727719 0,-56.264561 15.582328,-15.5361403 40.849941,-15.5354385 56.432973,0 15.584439,15.538245 15.583032,40.725614 0,56.263158 -15.583736,15.537544 -40.848533,15.538947 -56.432973,0.0014"
     id="Fill-1"
     sketch:type="MSShapeGroup"
     inkscape:connector-curvature="0"
     style="fill:#1e5a96;fill-rule:evenodd;stroke:#ffffff;stroke-width:3;stroke-miterlimit:4;stroke-dasharray:none;stroke-opacity:1"
     sodipodi:nodetypes="ccccc" />
  <path
     d="m 61.050069,42.3726 c -1.399299,3.785965 -9.586039,3.752982 -20.701593,3.785965 0,0 7.182315,-1.01193 9.257331,-5.009825 2.076423,-3.995088 4.521676,-12.093333 4.521676,-12.093333 -11.05854,-7.02e-4 -12.043961,3.861754 -12.043961,3.861754 0,0 -6.989453,19.484211 -9.481866,26.672983 -19.365642,0 -16.270715,-9.536842 -16.270715,-9.536842 l 9.686693,-27.09193 h 19.625371 l -1.310611,3.901754 c 0,0 1.599199,-3.901754 12.415606,-3.901754 0,0 11.088807,0.04842 9.785939,3.922105 -1.300756,3.872281 -5.48387,15.489123 -5.48387,15.489123"
     id="Fill-19"
     sketch:type="MSShapeGroup"
     inkscape:connector-curvature="0"
     style="fill:#ffffff;fill-rule:evenodd;stroke:none;stroke-width:1" />
</svg>
